<svg version="1.1" viewBox="0.0 0.0 960.0 720.0" fill="none" stroke="none" stroke-linecap="square" stroke-miterlimit="10" xmlns:xlink="http://www.w3.org/1999/xlink" xmlns="http://www.w3.org/2000/svg"><clipPath id="p.0"><path d="m0 0l960.0 0l0 720.0l-960.0 0l0 -720.0z" clip-rule="nonzero"/></clipPath><g clip-path="url(#p.0)"><path fill="#000000" fill-opacity="0.0" d="m0 0l960.0 0l0 720.0l-960.0 0z" fill-rule="evenodd"/><path fill="#000000" fill-opacity="0.0" d="m325.07977 534.2588l78.58267 -97.921234" fill-rule="evenodd"/><path stroke="#000000" stroke-width="24.0" stroke-linejoin="round" stroke-linecap="butt" d="m325.07977 534.2588l78.58267 -97.921234" fill-rule="evenodd"/><path fill="#000000" fill-opacity="0.0" d="m662.90564 555.66156l-106.58264 -119.33856" fill-rule="evenodd"/><path stroke="#000000" stroke-width="24.0" stroke-linejoin="round" stroke-linecap="butt" d="m662.90564 555.66156l-106.58264 -119.33856" fill-rule="evenodd"/><path fill="#000000" fill-opacity="0.0" d="m384.3701 316.13123l-108.629944 -48.75589" fill-rule="evenodd"/><path stroke="#000000" stroke-width="24.0" stroke-linejoin="round" stroke-linecap="butt" d="m384.3701 316.13123l-108.629944 -48.75589" fill-rule="evenodd"/><path fill="#000000" fill-opacity="0.0" d="m480.0 252.06299l0 -66.14172" fill-rule="evenodd"/><path stroke="#000000" stroke-width="24.0" stroke-linejoin="round" stroke-linecap="butt" d="m480.0 252.06299l0 -66.14172" fill-rule="evenodd"/><path fill="#000000" fill-opacity="0.0" d="m577.95013 314.74014l107.24408 -51.527557" fill-rule="evenodd"/><path stroke="#000000" stroke-width="24.0" stroke-linejoin="round" stroke-linecap="butt" d="m577.95013 314.74014l107.24408 -51.527557" fill-rule="evenodd"/><path fill="#ffffff" d="m372.063 360.0l0 0c0 -59.61197 48.325043 -107.93701 107.93701 -107.93701l0 0c28.626678 0 56.08087 11.371918 76.323 31.614014c20.242126 20.242126 31.614014 47.69632 31.614014 76.323l0 0c0 59.61197 -48.325073 107.93701 -107.93701 107.93701l0 0c-59.61197 0 -107.93701 -48.325043 -107.93701 -107.93701z" fill-rule="evenodd"/><path stroke="#000000" stroke-width="24.0" stroke-linejoin="round" stroke-linecap="butt" d="m372.063 360.0l0 0c0 -59.61197 48.325043 -107.93701 107.93701 -107.93701l0 0c28.626678 0 56.08087 11.371918 76.323 31.614014c20.242126 20.242126 31.614014 47.69632 31.614014 76.323l0 0c0 59.61197 -48.325073 107.93701 -107.93701 107.93701l0 0c-59.61197 0 -107.93701 -48.325043 -107.93701 -107.93701z" fill-rule="evenodd"/><path fill="#5755d9" d="m677.021 235.3412l0 0c0 -43.85228 35.549316 -79.401566 79.40155 -79.401566l0 0c21.058655 0 41.25476 8.365494 56.145447 23.25618c14.890625 14.890686 23.256165 35.086777 23.256165 56.145386l0 0c0 43.85228 -35.549316 79.401566 -79.40161 79.401566l0 0c-43.852234 0 -79.40155 -35.549286 -79.40155 -79.401566z" fill-rule="evenodd"/><path stroke="#000000" stroke-width="24.0" stroke-linejoin="round" stroke-linecap="butt" d="m677.021 235.3412l0 0c0 -43.85228 35.549316 -79.401566 79.40155 -79.401566l0 0c21.058655 0 41.25476 8.365494 56.145447 23.25618c14.890625 14.890686 23.256165 35.086777 23.256165 56.145386l0 0c0 43.85228 -35.549316 79.401566 -79.40161 79.401566l0 0c-43.852234 0 -79.40155 -35.549286 -79.40155 -79.401566z" fill-rule="evenodd"/><path fill="#ffffff" d="m400.59842 106.50656l0 0c0 -43.85228 35.549316 -79.40157 79.40158 -79.40157l0 0c21.058594 0 41.2547 8.3654995 56.145386 23.256182c14.890686 14.890686 23.256165 35.086784 23.256165 56.145393l0 0c0 43.85228 -35.549255 79.40158 -79.40155 79.40158l0 0c-43.852264 0 -79.40158 -35.5493 -79.40158 -79.40158z" fill-rule="evenodd"/><path stroke="#000000" stroke-width="24.0" stroke-linejoin="round" stroke-linecap="butt" d="m400.59842 106.50656l0 0c0 -43.85228 35.549316 -79.40157 79.40158 -79.40157l0 0c21.058594 0 41.2547 8.3654995 56.145386 23.256182c14.890686 14.890686 23.256165 35.086784 23.256165 56.145393l0 0c0 43.85228 -35.549255 79.40158 -79.40155 79.40158l0 0c-43.852264 0 -79.40158 -35.5493 -79.40158 -79.40158z" fill-rule="evenodd"/><path fill="#ffffff" d="m124.17585 235.3412l0 0c0 -43.85228 35.549294 -79.401566 79.40157 -79.401566l0 0c21.058609 0 41.254715 8.365494 56.145386 23.25618c14.890686 14.890686 23.256195 35.086777 23.256195 56.145386l0 0c0 43.85228 -35.5493 79.401566 -79.40158 79.401566l0 0c-43.85228 0 -79.40157 -35.549286 -79.40157 -79.401566z" fill-rule="evenodd"/><path stroke="#000000" stroke-width="24.0" stroke-linejoin="round" stroke-linecap="butt" d="m124.17585 235.3412l0 0c0 -43.85228 35.549294 -79.401566 79.40157 -79.401566l0 0c21.058609 0 41.254715 8.365494 56.145386 23.25618c14.890686 14.890686 23.256195 35.086777 23.256195 56.145386l0 0c0 43.85228 -35.5493 79.401566 -79.40158 79.401566l0 0c-43.85228 0 -79.40157 -35.549286 -79.40157 -79.401566z" fill-rule="evenodd"/><path fill="#ffffff" d="m619.9239 590.4042l0 0c0 -43.852234 35.549316 -79.40155 79.40155 -79.40155l0 0c21.058655 0 41.2547 8.3654785 56.145386 23.256165c14.890686 14.890686 23.256226 35.086792 23.256226 56.145386l0 0c0 43.852295 -35.549316 79.40161 -79.40161 79.40161l0 0c-43.852234 0 -79.40155 -35.549316 -79.40155 -79.40161z" fill-rule="evenodd"/><path stroke="#000000" stroke-width="24.0" stroke-linejoin="round" stroke-linecap="butt" d="m619.9239 590.4042l0 0c0 -43.852234 35.549316 -79.40155 79.40155 -79.40155l0 0c21.058655 0 41.2547 8.3654785 56.145386 23.256165c14.890686 14.890686 23.256226 35.086792 23.256226 56.145386l0 0c0 43.852295 -35.549316 79.40161 -79.40161 79.40161l0 0c-43.852234 0 -79.40155 -35.549316 -79.40155 -79.40161z" fill-rule="evenodd"/><path fill="#ffffff" d="m189.5328 590.4042l0 0c0 -43.852234 35.5493 -79.40155 79.40158 -79.40155l0 0c21.058594 0 41.2547 8.3654785 56.145386 23.256165c14.890686 14.890686 23.256195 35.086792 23.256195 56.145386l0 0c0 43.852295 -35.549316 79.40161 -79.40158 79.40161l0 0c-43.85228 0 -79.40158 -35.549316 -79.40158 -79.40161z" fill-rule="evenodd"/><path stroke="#000000" stroke-width="24.0" stroke-linejoin="round" stroke-linecap="butt" d="m189.5328 590.4042l0 0c0 -43.852234 35.5493 -79.40155 79.40158 -79.40155l0 0c21.058594 0 41.2547 8.3654785 56.145386 23.256165c14.890686 14.890686 23.256195 35.086792 23.256195 56.145386l0 0c0 43.852295 -35.549316 79.40161 -79.40158 79.40161l0 0c-43.85228 0 -79.40158 -35.549316 -79.40158 -79.40161z" fill-rule="evenodd"/></g></svg>