<svg xmlns="http://www.w3.org/2000/svg" xmlns:xlink="http://www.w3.org/1999/xlink" width="100" height="100" viewBox="0 0 100 100"><g><g transform="translate(50 50) scale(0.69 0.69) rotate(0) translate(-50 -50)" style="fill:#487eb0"><svg fill="#487eb0" xmlns="http://www.w3.org/2000/svg" xmlns:xlink="http://www.w3.org/1999/xlink" version="1.1" x="0px" y="0px" viewBox="0 0 100 100" enable-background="new 0 0 100 100" xml:space="preserve"><g><path d="M83.878,49.348c0-3.645-2.219-6.766-5.349-8.047c-0.505-0.218-1.03-0.394-1.577-0.512c1.427-1.609,2.233-3.706,2.233-5.955   c0-4.919-3.921-8.92-8.741-8.92c-0.578,0-1.154,0.06-1.723,0.179c-0.412-4.53-4.158-8.089-8.704-8.089   c-4.657,0-8.741,4.441-8.741,9.504v45.568c0,4.919,3.921,8.92,8.741,8.92c4.819,0,8.741-4.001,8.741-8.92   c0-0.068-0.001-0.134-0.002-0.195c0.553,0.11,1.116,0.166,1.688,0.166c4.82,0,8.741-4.001,8.741-8.918   c0-2.215-0.79-4.294-2.187-5.899c3.928-0.873,6.879-4.448,6.879-8.714c0-0.047-0.006-0.092-0.006-0.139   C83.872,49.367,83.878,49.358,83.878,49.348z M60.019,73.039c-1.109,0-2.01-0.901-2.01-2.009c0-1.108,0.9-2.01,2.01-2.01   c1.107,0,2.009,0.901,2.009,2.01C62.027,72.138,61.126,73.039,60.019,73.039z M70.485,65.586c-1.109,0-2.01-0.901-2.01-2.009   c0-1.108,0.9-2.01,2.01-2.01c1.107,0,2.009,0.901,2.009,2.01C72.494,64.685,71.593,65.586,70.485,65.586z M75.136,56.434   c-0.18,0-0.357-0.013-0.533-0.027c-0.459-0.045-0.885,0.239-1.033,0.676c-0.146,0.437,0.023,0.918,0.412,1.164   c2.006,1.274,3.204,3.474,3.204,5.883c0,3.45-2.478,6.311-5.7,6.827v-3.512c1.725-0.447,3.009-2.004,3.009-3.867   c0-2.211-1.798-4.01-4.009-4.01s-4.01,1.799-4.01,4.01c0,1.863,1.283,3.42,3.01,3.867v3.524c-0.572-0.084-1.133-0.234-1.67-0.467   c-0.357-0.153-0.772-0.088-1.062,0.171c-0.291,0.259-0.404,0.663-0.293,1.035c0.055,0.183,0.104,0.328,0.146,0.456   c0.12,0.357,0.152,0.454,0.152,0.912c0,3.466-2.498,6.337-5.741,6.835v-5.014c1.726-0.447,3.01-2.003,3.01-3.867   c0-2.211-1.798-4.01-4.009-4.01s-4.01,1.799-4.01,4.01c0,1.863,1.283,3.42,3.009,3.867v5.014c-3.243-0.498-5.741-3.369-5.741-6.835   V52.512h2.873c0.447,1.726,2.005,3.01,3.869,3.01c2.211,0,4.009-1.798,4.009-4.009s-1.798-4.01-4.009-4.01   c-1.863,0-3.42,1.283-3.868,3.009h-2.874V36.902h6.741h1.313h4.271c0.448,1.726,2.005,3.009,3.869,3.009   c2.211,0,4.009-1.798,4.009-4.009s-1.798-4.01-4.009-4.01c-1.864,0-3.422,1.284-3.869,3.01h-3.271V30.92   c1.727-0.447,3.01-2.003,3.01-3.867c0-2.211-1.798-4.01-4.009-4.01s-4.01,1.799-4.01,4.01c0,1.863,1.284,3.42,3.009,3.867v3.982   h-0.313h-6.741v-7.395c0-3.997,3.15-7.504,6.741-7.504c3.718,0,6.741,3.104,6.741,6.92c0,0.113-0.009,0.226-0.023,0.433   c-0.021,0.34,0.131,0.668,0.404,0.87c0.275,0.202,0.632,0.252,0.951,0.13c0.77-0.294,1.561-0.442,2.354-0.442   c3.717,0,6.741,3.104,6.741,6.92c0,2.46-1.236,4.683-3.308,5.945c-0.021,0.014-0.035,0.034-0.056,0.049   c-3.946,0.748-6.944,4.281-6.944,8.52c0,0.553,0.447,1,1,1c0.552,0,1-0.447,1-1c0-3.679,2.916-6.672,6.5-6.672   c0.856,0,1.673,0.175,2.423,0.485c2.396,1.063,4.077,3.511,4.077,6.354C81.878,53.33,78.854,56.434,75.136,56.434z M58.009,51.513   c0-1.108,0.9-2.01,2.01-2.01c1.107,0,2.009,0.901,2.009,2.01c0,1.107-0.901,2.009-2.009,2.009   C58.909,53.521,58.009,52.62,58.009,51.513z M61.332,29.062c-1.108,0-2.01-0.901-2.01-2.009c0-1.108,0.901-2.01,2.01-2.01   s2.009,0.901,2.009,2.01C63.341,28.16,62.44,29.062,61.332,29.062z M67.462,35.902c0-1.108,0.9-2.01,2.01-2.01   c1.107,0,2.009,0.901,2.009,2.01c0,1.107-0.901,2.009-2.009,2.009C68.362,37.911,67.462,37.01,67.462,35.902z"></path><g><path d="M16.321,49.336c0,0.047-0.006,0.092-0.006,0.139c0,4.266,2.951,7.841,6.879,8.714c-1.396,1.605-2.187,3.685-2.187,5.899    c0,4.917,3.921,8.918,8.741,8.918c0.571,0,1.135-0.056,1.688-0.166c-0.001,0.062-0.002,0.127-0.002,0.195    c0,4.919,3.922,8.92,8.741,8.92c4.82,0,8.741-4.001,8.741-8.92V27.467c0-5.062-4.084-9.504-8.741-9.504    c-4.546,0-8.292,3.559-8.704,8.089c-0.568-0.119-1.145-0.179-1.723-0.179c-4.82,0-8.741,4.001-8.741,8.92    c0,2.249,0.807,4.346,2.233,5.955c-0.547,0.118-1.072,0.294-1.577,0.512c-3.13,1.281-5.349,4.402-5.349,8.047    C16.315,49.317,16.321,49.326,16.321,49.336z M38.166,70.989c0-1.108,0.901-2.01,2.009-2.01c1.109,0,2.01,0.901,2.01,2.01    c0,1.107-0.9,2.009-2.01,2.009C39.067,72.998,38.166,72.097,38.166,70.989z M27.699,63.536c0-1.108,0.901-2.01,2.009-2.01    c1.109,0,2.01,0.901,2.01,2.01c0,1.107-0.9,2.009-2.01,2.009C28.6,65.545,27.699,64.644,27.699,63.536z M18.315,49.475    c0-2.844,1.682-5.291,4.077-6.354c0.75-0.311,1.566-0.485,2.423-0.485c3.584,0,6.5,2.993,6.5,6.672c0,0.553,0.448,1,1,1    c0.553,0,1-0.447,1-1c0-4.238-2.998-7.771-6.944-8.52c-0.021-0.015-0.034-0.035-0.056-0.049c-2.071-1.263-3.308-3.485-3.308-5.945    c0-3.815,3.024-6.92,6.741-6.92c0.793,0,1.584,0.148,2.354,0.442c0.319,0.122,0.676,0.072,0.951-0.13    c0.273-0.202,0.426-0.53,0.404-0.87c-0.015-0.207-0.023-0.319-0.023-0.433c0-3.815,3.023-6.92,6.741-6.92    c3.591,0,6.741,3.507,6.741,7.504v7.395h-6.741h-0.313v-3.982c1.725-0.447,3.009-2.004,3.009-3.867c0-2.211-1.799-4.01-4.01-4.01    s-4.009,1.799-4.009,4.01c0,1.864,1.283,3.42,3.01,3.867v3.982H34.59c-0.447-1.726-2.005-3.01-3.869-3.01    c-2.211,0-4.009,1.799-4.009,4.01s1.798,4.009,4.009,4.009c1.864,0,3.421-1.283,3.869-3.009h4.271h1.313h6.741v13.609h-2.874    c-0.448-1.726-2.005-3.009-3.868-3.009c-2.211,0-4.009,1.799-4.009,4.01s1.798,4.009,4.009,4.009c1.864,0,3.422-1.284,3.869-3.01    h2.873v20.564c0,3.466-2.498,6.337-5.741,6.835v-5.014c1.726-0.447,3.009-2.004,3.009-3.867c0-2.211-1.799-4.01-4.01-4.01    s-4.009,1.799-4.009,4.01c0,1.864,1.284,3.42,3.01,3.867v5.014c-3.243-0.498-5.741-3.369-5.741-6.835    c0-0.458,0.032-0.555,0.152-0.912c0.043-0.128,0.092-0.273,0.146-0.456c0.111-0.372-0.002-0.776-0.293-1.035    c-0.29-0.259-0.705-0.324-1.062-0.171c-0.537,0.232-1.098,0.383-1.67,0.467v-3.524c1.727-0.447,3.01-2.004,3.01-3.867    c0-2.211-1.799-4.01-4.01-4.01s-4.009,1.799-4.009,4.01c0,1.863,1.284,3.42,3.009,3.867v3.512c-3.223-0.517-5.7-3.377-5.7-6.827    c0-2.409,1.198-4.608,3.204-5.883c0.389-0.246,0.559-0.728,0.412-1.164c-0.148-0.437-0.574-0.721-1.033-0.676    c-0.176,0.015-0.354,0.027-0.533,0.027C21.339,56.393,18.315,53.289,18.315,49.475z M40.174,53.48    c-1.107,0-2.009-0.901-2.009-2.009c0-1.108,0.901-2.01,2.009-2.01c1.109,0,2.01,0.901,2.01,2.01    C42.184,52.579,41.284,53.48,40.174,53.48z M36.852,27.012c0-1.108,0.9-2.01,2.009-2.01s2.01,0.901,2.01,2.01    c0,1.107-0.901,2.009-2.01,2.009S36.852,28.119,36.852,27.012z M30.721,37.87c-1.107,0-2.009-0.901-2.009-2.009    c0-1.108,0.901-2.01,2.009-2.01c1.109,0,2.01,0.901,2.01,2.01C32.731,36.969,31.831,37.87,30.721,37.87z"></path></g></g></svg></g></g></svg>