<svg xmlns="http://www.w3.org/2000/svg" xmlns:xlink="http://www.w3.org/1999/xlink" width="100" height="100" viewBox="0 0 100 100"><g><g transform="translate(50 50) scale(0.69 0.69) rotate(0) translate(-50 -50)" style="fill:#487eb0"><svg fill="#487eb0" xmlns="http://www.w3.org/2000/svg" xmlns:xlink="http://www.w3.org/1999/xlink" version="1.1" x="0px" y="0px" viewBox="0 0 100 100" style="enable-background:new 0 0 100 100;" xml:space="preserve"><path d="M50,17.4C32,17.4,17.4,32,17.4,50S32,82.6,50,82.6S82.6,68,82.6,50S68,17.4,50,17.4z M20.4,50c0-16.3,13.3-29.6,29.6-29.6  c7.6,0,14.6,2.9,19.8,7.6L28.1,69.8C23.3,64.6,20.4,57.6,20.4,50z M50,79.6c-7.6,0-14.6-2.9-19.8-7.6l41.8-41.8  c4.7,5.2,7.6,12.2,7.6,19.8C79.6,66.3,66.3,79.6,50,79.6z"></path></svg></g></g></svg>