<svg xmlns="http://www.w3.org/2000/svg" xmlns:xlink="http://www.w3.org/1999/xlink" width="100" height="100" viewBox="0 0 100 100"><g><g transform="translate(50 50) scale(0.69 0.69) rotate(0) translate(-50 -50)" style="fill:#487eb0"><svg fill="#487eb0" xmlns="http://www.w3.org/2000/svg" xmlns:xlink="http://www.w3.org/1999/xlink" version="1.1" x="0px" y="0px" viewBox="0 0 66 66" enable-background="new 0 0 66 66" xml:space="preserve"><g><g><path d="M26.3,16.1c-1.2,0-2.3,0.4-3.2,1L20,14l6.4-6.4c0.4-0.4,0.4-1,0-1.4l-2.6-2.6c-0.9-0.9-2.5-0.9-3.4,0L19,5l-1.9-1.9    c-0.9-0.9-2.5-0.9-3.4,0l-0.5,0.5l-1.9-1.9c-0.9-0.9-2.5-0.9-3.4,0L1.7,8c-0.9,0.9-0.9,2.5,0,3.4l1.9,1.9l-0.5,0.5    c-0.9,0.9-0.9,2.5,0,3.4L5,19l-1.4,1.4c-0.5,0.5-0.7,1.1-0.7,1.7c0,0.6,0.2,1.2,0.7,1.7l2.6,2.6c0.2,0.2,0.5,0.3,0.7,0.3    c0.3,0,0.5-0.1,0.7-0.3L14,20l3.5,3.5c-0.9,1.2-1.3,2.8-1.1,4.4c-4.3,2.1-4.3,8.3,0,10.4c-0.2,1.5,0.1,3,1.1,4.4L14,46l-6.4-6.4    c-0.4-0.4-1-0.4-1.4,0l-2.6,2.6c-0.9,0.9-0.9,2.5,0,3.4L5,47l-1.9,1.9c-0.9,0.9-0.9,2.5,0,3.4l0.5,0.5l-1.9,1.9    C1.3,55.1,1,55.7,1,56.4C1,57,1.3,57.6,1.7,58L8,64.3c0.9,0.9,2.5,0.9,3.4,0l1.9-1.9l0.5,0.5c0.9,0.9,2.5,0.9,3.4,0L19,61l1.4,1.4    c0.9,0.9,2.5,0.9,3.4,0l2.6-2.6c0.4-0.4,0.4-1,0-1.4L20,52l3.1-3.1c3.8,2.6,9.1-0.1,9.1-4.8V21.9C32.1,18.7,29.5,16.1,26.3,16.1z     M3.1,9.9C3,9.8,3,9.5,3.1,9.4l6.2-6.2C9.4,3,9.5,3,9.6,3c0.1,0,0.2,0,0.3,0.1L11.8,5L5,11.8L3.1,9.9z M4.5,15.7    c-0.2-0.2-0.2-0.4,0-0.6l1.2-1.2l8.2-8.2l1.2-1.2c0.1-0.1,0.2-0.1,0.3-0.1c0.1,0,0.2,0,0.3,0.1l1.9,1.9L6.4,17.6L4.5,15.7z     M6.9,24.3L5,22.4v0c-0.1-0.1-0.1-0.2-0.1-0.3c0-0.1,0-0.2,0.1-0.3l2.1-2.1L19.7,7.1L21.8,5c0.1-0.1,0.2-0.1,0.3-0.1    c0.1,0,0.2,0,0.3,0.1l1.9,1.9l-6.4,6.4c0,0,0,0,0,0l-4.5,4.5c0,0,0,0,0,0L6.9,24.3z M18.5,15.4l3.1,3.1c-0.6,0.8-1,1.9-1.1,2.8    c-0.5,0.2-1.2,0.5-1.6,0.7l-3.5-3.5L18.5,15.4z M9.9,62.9c-0.2,0.2-0.4,0.2-0.6,0l-6.2-6.2C3,56.5,3,56.4,3,56.4    c0-0.1,0-0.2,0.1-0.3L5,54.2l6.8,6.8L9.9,62.9z M17.6,59.6l-1.9,1.9c-0.2,0.2-0.4,0.2-0.6,0C6,52.3,13.7,60,4.5,50.9    c-0.2-0.2-0.2-0.4,0-0.6l1.9-1.9C7.5,49.5,16.5,58.5,17.6,59.6z M22.4,61c-0.2,0.2-0.4,0.2-0.6,0C15.8,55,11,50.2,5,44.2    c-0.2-0.2-0.2-0.4,0-0.6l1.9-1.9c9.1,9.1,14.4,14.4,17.4,17.4L22.4,61z M15.4,47.5l3.5-3.5c2,1.3,1.3,0,1.8,1.6    c0.2,0.6,0.5,1.3,0.9,1.9c0,0,0,0,0,0l-3.1,3.1L15.4,47.5z M30.1,44.1c0,3.4-4.1,5-6.4,2.7c-2.4-2.3-0.9-6.7,2.7-6.7    c0.6,0,1-0.4,1-1c0-0.6-0.4-1-1-1c-2.8,0-5.1,1.9-5.7,4.5c-3-1.3-3-5.5-0.2-7c0.5-0.3,0.7-0.9,0.4-1.4c-0.3-0.5-0.9-0.7-1.4-0.4    c-1.2,0.6-1.8,1.5-2.4,2.4c-2.6-1.5-2.5-5.1,0-6.6c0.6,1,1.5,1.9,2.6,2.4c0.5,0.2,1.1,0,1.3-0.5c0.2-0.5,0-1.1-0.5-1.3    c-2.9-1.3-3-5.5,0.1-6.8c0.6,2.7,2.9,4.5,5.7,4.5c0.6,0,1-0.4,1-1c0-0.6-0.4-1-1-1c-1,0-2-0.4-2.7-1.1c-2.3-2.3-0.8-6.7,2.7-6.7    c2.1,0,3.8,1.7,3.8,3.8V44.1z"></path></g><g><path d="M64.3,54.7l-1.9-1.9l0.5-0.5c0.9-0.9,0.9-2.5,0-3.4c0,0,0,0,0,0L61,47l1.4-1.4c0.9-0.9,0.9-2.4,0-3.4l-2.6-2.6    c-0.4-0.4-1-0.4-1.4,0L52,46l-3.5-3.5c0.9-1.2,1.3-2.8,1.1-4.3c4.3-2.1,4.3-8.3,0-10.4c0.3-1.6-0.2-3.1-1.1-4.4L52,20l6.4,6.4    c0.4,0.4,1,0.4,1.4,0l2.6-2.6c0.9-0.9,0.9-2.4,0-3.4L61,19l1.9-1.9c0.5-0.5,0.7-1.1,0.7-1.7c0-0.6-0.2-1.2-0.7-1.7l-0.5-0.5    l1.9-1.9c0.5-0.5,0.7-1.1,0.7-1.7C65,9,64.7,8.4,64.3,8L58,1.7c-0.9-0.9-2.5-0.9-3.4,0l-1.9,1.9l-0.5-0.5c-0.9-0.9-2.5-0.9-3.4,0    L47,5l-1.4-1.4c-0.9-0.9-2.5-0.9-3.4,0l-2.6,2.6c-0.2,0.2-0.3,0.4-0.3,0.7c0,0.3,0.1,0.5,0.3,0.7L46,14l-3.1,3.1    c-3.8-2.6-9.1,0.1-9.1,4.8v22.2c0,4.7,5.3,7.4,9.1,4.8L46,52l-6.4,6.4c-0.4,0.4-0.4,1,0,1.4l2.6,2.6c0.9,0.9,2.5,0.9,3.4,0L47,61    l1.9,1.9c0.9,0.9,2.5,0.9,3.4,0l0.5-0.5l1.9,1.9c0.9,0.9,2.5,0.9,3.4,0l6.2-6.2C65.2,57.1,65.2,55.6,64.3,54.7L64.3,54.7z     M56.1,3.1L56.1,3.1c0.2-0.2,0.4-0.2,0.6,0l6.2,6.2C63,9.5,63,9.6,63,9.6c0,0.1,0,0.2-0.1,0.3L61,11.8c-0.1-0.1-7.1-7.1-6.8-6.8    L56.1,3.1z M50.3,4.5c0.2-0.2,0.4-0.2,0.6,0c3.7,3.7,6.9,6.9,10.6,10.6c0.1,0.1,0.1,0.2,0.1,0.3c0,0.1,0,0.2-0.1,0.3l-1.9,1.9    L48.4,6.4L50.3,4.5z M43.6,5c0.2-0.2,0.4-0.2,0.6,0c6,6,10.3,10.3,16.8,16.8c0.2,0.2,0.2,0.4,0,0.6l-1.9,1.9    C51.7,16.9,49,14.2,41.7,6.9L43.6,5z M50.6,18.5L47,22.1c-0.4-0.2-1-0.6-1.6-0.7c-0.1-0.9-0.5-2-1.1-2.8c0,0,0,0,0,0l3.1-3.1    C47.6,15.6,50.8,18.8,50.6,18.5z M35.9,44.1V21.9c0-5,7.6-5.1,7.6,0.1c-0.4,2.9-1.9,4-3.8,4c-0.6,0-1,0.4-1,1c0,0.6,0.4,1,1,1    c2.8,0,5.1-1.9,5.7-4.5c3,1.3,3,5.5,0.1,6.8c-0.5,0.2-0.7,0.8-0.5,1.3c0.2,0.5,0.8,0.7,1.3,0.5c1.1-0.5,2-1.3,2.6-2.4    c2.5,1.5,2.6,5.1,0,6.6c-0.6-1-1.2-1.8-2.4-2.4c-0.5-0.3-1.1-0.1-1.4,0.4c-0.3,0.5-0.1,1.1,0.4,1.4c2.8,1.5,2.8,5.7-0.2,7    c-0.6-2.6-2.9-4.5-5.7-4.5c-0.6,0-1,0.4-1,1c0,0.6,0.4,1,1,1c3.5,0,5.1,4.4,2.6,6.7C40,49.1,35.9,47.5,35.9,44.1z M47.4,50.6    l-3.1-3.1c0.5-0.8,1-1.8,1.1-2.8c0.6-0.2,1.2-0.5,1.6-0.7l3.5,3.5C50.5,47.6,47.2,50.8,47.4,50.6z M44.2,61    c-0.2,0.2-0.4,0.2-0.6,0l-1.9-1.9c2.7-2.7,14.7-14.7,17.4-17.4l1.9,1.9c0.2,0.2,0.2,0.4,0,0.6L44.2,61z M50.3,61.5l-1.9-1.9    l11.2-11.2l1.9,1.9c0.2,0.2,0.2,0.4,0,0.6L50.9,61.5C50.7,61.7,50.5,61.7,50.3,61.5z M62.9,56.6l-6.2,6.2c-0.2,0.2-0.4,0.2-0.6,0    L54.2,61l6.8-6.8l1.9,1.9C63,56.2,63,56.5,62.9,56.6z"></path></g></g></svg></g></g></svg>