<svg xmlns="http://www.w3.org/2000/svg" xmlns:xlink="http://www.w3.org/1999/xlink" width="100" height="100" viewBox="0 0 100 100"><g><g transform="translate(50 50) scale(0.69 0.69) rotate(0) translate(-50 -50)" style="fill:#5f27cd"><svg fill="#5f27cd" xmlns="http://www.w3.org/2000/svg" data-name="Layer 1" viewBox="0 0 100 100" x="0px" y="0px"><defs><style>.\31 a66a545-0d48-4459-b0a0-3a31f1e5b428{fill:none;stroke:#5f27cd;stroke-linecap:round;stroke-linejoin:round;stroke-width:4.38159px;}</style></defs><title>8-</title><g data-name="nWGjHu.tif"><path class="1a66a545-0d48-4459-b0a0-3a31f1e5b428" d="M49.887,53.60049c1.63857,1.60321,3.37472,3.28926,5.049,4.85427a48.90521,48.90521,0,0,0,6.81845,5.48891A21.67476,21.67476,0,0,0,67.237,66.55731a13.48322,13.48322,0,0,0,2.226.47061,15.93465,15.93465,0,0,0,2.08744.136,13.03447,13.03447,0,0,0,3.53608-.53355,13.49148,13.49148,0,0,0,5.87529-3.46,13.34572,13.34572,0,0,0,3.93249-8.52645,13.66022,13.66022,0,0,0-.37343-4.41926,13.19742,13.19742,0,0,0-2.35611-4.85093A13.78891,13.78891,0,0,0,78.44942,42.013,13.45351,13.45351,0,0,0,74.414,40.35974a17.36667,17.36667,0,0,0-1.907-.30178,11.71435,11.71435,0,0,0-2.75867.02734,16.11736,16.11736,0,0,0-4.91812,1.43543,31.68522,31.68522,0,0,0-6.68806,4.38109c-1.89834,1.56184-7.35913,6.81454-8.255,7.69867"></path><path class="1a66a545-0d48-4459-b0a0-3a31f1e5b428" d="M24.55,40.60178a13.67852,13.67852,0,0,0-8.43015,7.49263,15.8016,15.8016,0,0,0-.88779,2.62756,12.19583,12.19583,0,0,0-.269,2.15258,13.44717,13.44717,0,0,0,1.87851,7.6386,13.53143,13.53143,0,0,0,6.43492,5.5899,14.36884,14.36884,0,0,0,3.1497.90922,12.35721,12.35721,0,0,0,3.03924.141,16.65642,16.65642,0,0,0,6.183-1.77233,27.57611,27.57611,0,0,0,4.17905-2.60463c1.61842-1.20809,3.14486-2.52456,4.638-3.88425,1.78286-1.62347,4.97435-4.86885,5.42141-5.29153-.35364-.36422-4.4849-4.53511-6.41775-6.24108a44.05483,44.05483,0,0,0-5.34-4.13722,23.56057,23.56057,0,0,0-5.7638-2.68742A13.79974,13.79974,0,0,0,24.55,40.60178Z"></path></g></svg></g></g></svg>