<svg xmlns="http://www.w3.org/2000/svg" xmlns:xlink="http://www.w3.org/1999/xlink" width="100" height="100" viewBox="0 0 100 100"><g><g transform="translate(50 50) scale(0.69 0.69) rotate(0) translate(-50 -50)" style="fill:#5f27cd"><svg fill="#5f27cd" xmlns="http://www.w3.org/2000/svg" xmlns:xlink="http://www.w3.org/1999/xlink" version="1.1" x="0px" y="0px" viewBox="0 0 100 100" enable-background="new 0 0 100 100" xml:space="preserve"><path d="M52.4,87.5c8-0.7,15.4-3.8,21.3-8.7C67.6,83.7,60.1,86.7,52.4,87.5z"></path><path d="M85.8,61.8c0.4-1.2,0.8-2.4,1.1-3.6C86.6,59.3,86.2,60.5,85.8,61.8z"></path><path d="M86.9,71c0,0.1-0.1,0.1-0.1,0.2c0.1-0.2,0.2-0.4,0.4-0.6C87.1,70.7,87,70.8,86.9,71z"></path><path d="M88.4,50c0,1-0.2,2-0.4,3c-0.2,1.3-0.4,2.6-0.7,3.8C87.8,54.6,88.3,52.3,88.4,50z"></path><path d="M22.3,25.8c-3.3,3.5-5.8,7.6-7.4,12.1C16.6,33.6,19.2,29.5,22.3,25.8z"></path><path d="M81,57c0-0.1,0-0.1,0-0.2c0,0.2-0.1,0.3-0.1,0.5C80.9,57.2,81,57.1,81,57z"></path><path d="M74,71c0.4-0.6,0.8-1.2,1.2-1.8c-1.3,1.4-2.7,2.7-4,4.1C72.2,72.6,73.1,71.9,74,71z"></path><path d="M40,80c9.8,3.2,21,2,30-5c0.4-0.6,0.8-1.1,1.3-1.6C66.6,77,60.8,79.3,55,81C50,82,45,81,40,80z"></path><path d="M18.6,52c0.1-2.3,0.3-4.6,0.4-7.1C18.5,47.2,18.4,49.6,18.6,52z"></path><path d="M18.6,52c-0.1,1.9,0,3.9,0.4,6c3,11,11.2,18.8,21,22C27.6,75.7,19.4,64,18.6,52z"></path><path d="M87.2,70.5c0.4-0.7,0.5-1,0.5-1C87.5,69.9,87.3,70.2,87.2,70.5z"></path><path d="M77,67c1.8-3.2,3.1-6.5,3.9-9.7c-1.7,4.2-3.4,8.3-5.7,11.9C75.9,68.5,76.5,67.8,77,67z"></path><path d="M69.3,28.5c-1.4-1.2-2.8-2.3-4.3-3.3C66.4,26.3,67.8,27.4,69.3,28.5z"></path><path d="M59.3,76c1.3-0.4,2.6-1,3.8-1.6C61.9,74.9,60.6,75.4,59.3,76z"></path><path d="M42.8,21.4c-4.1,0.8-8,2.4-11.8,4.6c-3,3-7,6-9,10c-1,3-3,5-3,8c0,0.3,0,0.5,0,0.8c0.9-4.9,3.2-9.7,7-13.8  C30.7,26.3,36.3,23.4,42.8,21.4z"></path><path d="M44,21c-0.4,0.1-0.8,0.2-1.2,0.4c1.8-0.4,3.6-0.6,5.4-0.6C46.8,20.7,45.4,20.8,44,21z"></path><path d="M74.7,59.7c1-2.6,1.8-5.1,2.3-7.7c2-15-9-28-24-31c-1.6-0.2-3.2-0.3-4.7-0.2C52.8,21,57.2,22.5,61,24  C74.2,31,79.6,46.5,74.7,59.7z"></path><path d="M42,87C42,87,42,87,42,87C42,87,42,87,42,87C42,87,42,87,42,87z"></path><path d="M23.6,24.5c3.9-3.2,8.3-6,13.1-7.7c-0.2,0.1-0.5,0.1-0.7,0.2C31.1,18.7,27,21.3,23.6,24.5z"></path><path d="M85.8,61.8c-2.4,6.5-6.5,12.2-11.6,16.6C77.7,75.5,80.7,72,83,68C84.2,66.1,85.1,63.9,85.8,61.8z"></path><path d="M22.3,25.8c0.4-0.4,0.8-0.9,1.3-1.3c-0.2,0.2-0.4,0.3-0.6,0.5C22.8,25.3,22.5,25.5,22.3,25.8z"></path><path d="M20,73c-7.4-10.6-8.9-23.4-5.3-34.3C12.6,44.4,11.9,50.5,13,57c1,7,4,14,9,19c1.4,1.2,2.8,2.2,4.2,3.3  C23.8,77.1,21.6,75.4,20,73z"></path><path d="M52.4,87.5c-3.4,0.3-6.8,0.2-10.4-0.5C45.5,87.7,49,87.8,52.4,87.5z"></path><path d="M82,48c0-0.3,0-0.6-0.1-0.9c0,0.7,0,1.4,0,2.1C82,48.8,82,48.4,82,48z"></path><path d="M42,87c-6.1-1.5-11.1-4.3-15.8-7.7c0.6,0.5,1.2,1.1,1.8,1.7C32.3,84.1,37.1,86.1,42,87z"></path><path d="M63,91c9.9-4,18.9-9.9,23.8-19.8C79,84.6,64.3,92.3,49.5,92.6C54,92.7,58.5,92.3,63,91z"></path><path d="M58.3,21.5c2.4,1,4.6,2.3,6.8,3.7c-1-0.8-1.9-1.5-3.1-2.3C60.8,22.4,59.5,22,58.3,21.5z"></path><path d="M19,40c-5,15,1,31,15,39c10,5,21,5,31,0c5-2,9-6,12-10c8.9-12.1,8.1-28,0.3-39.4C85.2,41.9,85.2,59.4,75,71  c-8,9-20,13-32,11c-7-2-14-6-19-12c-6-9-8-19-5-29c5.6-15.8,23.2-24.7,39.3-19.5C56.9,21,55.5,20.4,54,20C38,17,24,26,19,40z"></path><path d="M62.6,17.6c6.1,2.6,11.1,6.9,14.7,12.1C73.8,24.3,68.9,20,62.6,17.6z"></path><path d="M44,15c-2.5,0.3-5,0.9-7.3,1.8c2.8-0.8,5.5-0.9,8.3-1.8c6-1,11,1,16,2c0.6,0.2,1.1,0.4,1.6,0.6c-1.5-0.6-3-1.2-4.6-1.6  C53,15,49,14,44,15z"></path><path d="M69.3,28.5c0.4,0.3,0.8,0.7,1.2,1c-0.2-0.2-0.3-0.4-0.5-0.6C69.8,28.8,69.6,28.7,69.3,28.5z"></path><path d="M16,25c-3,3-4.5,6.7-5.7,10.7c2.1-5.3,5.1-9.8,9-13.9C18.2,22.8,17.1,23.9,16,25z"></path><path d="M10.3,35.7C9.3,38,8.6,40.4,8,43c-0.1,0.8-0.2,1.5-0.2,2.3C7.8,44.9,7.9,44.4,8,44C8.8,41.2,9.4,38.4,10.3,35.7z"></path><path d="M7.6,55.7c-0.3-3.4-0.2-6.9,0.2-10.5C7.1,48.9,7.1,52.2,7.6,55.7z"></path><path d="M18.9,79.6C13.5,73.1,9.9,66.4,8,58c-0.2-0.8-0.3-1.5-0.4-2.3C8,59.9,9,64,11,68C13,72.1,15.6,76.2,18.9,79.6z"></path><path d="M49.5,92.6c-2.5-0.1-5-0.3-7.5-0.6c-7-1-12-4-18-8c-1.9-1.3-3.6-2.8-5.1-4.4c0.4,0.5,0.7,0.9,1.1,1.4  C28.2,89.2,38.9,92.8,49.5,92.6z"></path><path d="M20,21c-0.3,0.3-0.5,0.6-0.8,0.8c0.4-0.4,0.8-0.8,1.2-1.1C20.3,20.8,20.1,20.9,20,21z"></path><path d="M87.1,57.4c-0.1,0.2-0.1,0.5-0.2,0.7c0-0.1,0-0.1,0.1-0.2C87,57.8,87.1,57.6,87.1,57.4z"></path><path d="M87,40C82,18,59,4,38,11c-1,0.3-2.1,0.8-3.3,1.3c2.2-0.9,4.6-1.7,7.3-2.3c23-4,43,13,46,36c0.2,1,0.4,1.9,0.4,2.9  C88.3,45.9,87.7,42.7,87,40z"></path><path d="M28,15c-3,1.8-5.3,3.6-7.6,5.7c4.5-3.2,8.6-6,13.4-8C31.8,13.5,29.7,14.4,28,15z"></path><path d="M46.7,10.7c-3.9,0.2-7.8,1-11.7,2.3c-0.2,0.1-0.4,0.2-0.6,0.3c3-0.9,6.3-1.6,9.6-2.3C44.9,10.8,45.8,10.7,46.7,10.7z"></path><path d="M89.1,61.2c0.3-0.9,0.5-1.8,0.7-2.7C89.6,59.4,89.3,60.3,89.1,61.2z"></path><path d="M56,85c4-1,8-2,12-4c2.4-1.4,4.4-3,6.2-4.8c-6.8,6-15.8,9.2-24.9,9.2C51.6,85.4,53.8,85.3,56,85z"></path><path d="M62,89c-4.1,1.2-8.2,1.6-12.4,1.6C54,90.7,58.2,90.3,62,89z"></path><path d="M90.4,43.1c-0.2-1.7-0.6-3.5-1-5.2C89.7,39.7,90.1,41.4,90.4,43.1z"></path><path d="M43,80c0.3,0.1,0.6,0.1,0.8,0.1c-0.4-0.1-0.8-0.2-1.2-0.2C42.8,79.9,42.9,80,43,80z"></path><path d="M37,78c2.1,1,3.9,1.5,5.7,1.9c-2.4-0.6-5.1-1.6-7.5-2.9C35.8,77.4,36.4,77.7,37,78z"></path><path d="M35.2,77c-0.8-0.5-1.6-1-2.4-1.5C33.5,76,34.3,76.6,35.2,77z"></path><path d="M94.6,42.3C95.3,46.1,95.4,50,95,54C95.8,50.1,95.3,46.2,94.6,42.3z"></path><path d="M94.4,41c-0.1-0.7-0.3-1.3-0.4-2C90,24,81,11,66,6c-6-2-12-4-19-3C69.6,2.2,90.1,19.5,94.4,41z"></path><path d="M89,72c-3,5-7,9-11,13C83,81,86,77,89,72z"></path><path d="M74.7,59.7c-0.4,1-0.8,2-1.3,3C73.8,61.7,74.3,60.7,74.7,59.7z"></path><path d="M95,54c-2,6-2,12-6,18C93,66,94,60,95,54z"></path><path d="M24,88c5,4,11,6,17,7c1.5,0.1,2.9,0.3,4.4,0.4C37,94.5,29,91.5,22.3,86.7C22.9,87.1,23.4,87.6,24,88z"></path><path d="M29,11c-1.9,1.2-3.9,2.5-5.7,3.9C28.6,12.2,34,9.5,40,7.6C36.1,8.4,32.2,9.4,29,11z"></path><path d="M94.9,58.9C93.4,64.5,91,69.8,88,75C91.5,69.9,93.7,64.4,94.9,58.9z"></path><path d="M66.2,10.9c3.1,1.5,6.1,3.3,8.9,5.4C72.4,14.2,69.4,12.4,66.2,10.9z"></path><path d="M6,63c0.3,0.9,0.6,1.8,0.9,2.7c-1.7-5.1-2.5-10.3-2.5-15.5C4.2,54.5,4.7,59,6,63z"></path><path d="M76,17c-0.3-0.2-0.6-0.5-0.9-0.7c0.6,0.5,1.3,1,1.9,1.5C76.6,17.6,76.3,17.3,76,17z"></path><path d="M91,58.4c1.1-4.3,1.5-8.7,1-13.4c-1-6-3-12-6-18c-1.2-1.9-2.6-3.6-4-5.3C90.2,31.8,93.7,45.5,91,58.4z"></path><path d="M50.4,10.7c-1.2-0.1-2.4-0.1-3.6,0C47.9,10.6,49.1,10.6,50.4,10.7z"></path><path d="M53,11c-0.9-0.1-1.8-0.2-2.6-0.3c1,0.1,2,0.2,3.1,0.4C53.3,11.1,53.1,11,53,11z"></path><path d="M58,12c-1.6-0.3-3.1-0.6-4.6-0.9c2.5,0.6,4.6,1.3,6.8,1.9C59.5,12.7,58.7,12.4,58,12z"></path><path d="M14.5,71.7c0.8,1.5,1.6,2.9,2.5,4.3c3,4,6,6,10,9C22.1,81.2,17.7,76.7,14.5,71.7z"></path><path d="M72,31c-0.5-0.5-1-1-1.5-1.4c8.6,10,10.4,23.7,2.5,35.4c-2,2-3,4-5,6c-1.5,1.3-3.1,2.4-4.8,3.3c0.3-0.1,0.6-0.2,0.8-0.3  C79,65,83,44,72,31z"></path><path d="M13,32c4.9-8.8,12.7-14.7,21.4-18.7c-1.6,0.5-3.1,1.1-4.4,1.7C19,21,11,31,9,44c0,5-1,9,0,14c0.9,5,2.8,9.5,5.5,13.7  C7.7,58.8,6.7,44.6,13,32z"></path><path d="M44.5,86.4c6.4,1.1,13.1,0.4,19.5-2.4c0.5-0.3,1-0.5,1.5-0.8C59,86.2,51.6,87.3,44.5,86.4z"></path><path d="M64,14c-1.3-0.3-2.5-0.7-3.7-1c2.4,1,5,1.8,7.4,3C66.5,15.3,65.2,14.6,64,14z"></path><path d="M21.9,73.5c1.4,1.7,2.7,3.1,4.1,4.5c5.3,4.8,11.8,7.5,18.5,8.4C35.7,84.9,27.6,80.3,21.9,73.5z"></path><path d="M81,29c4,6,5,12,6,18c1,5-1,9-2,14c-2,7.2-6.2,13.1-11.6,17.4c0.2-0.1,0.4-0.3,0.6-0.4c15-13,18-34,6-51  c-2.1-3.1-4.7-5.7-7.7-7.9C75.7,21.9,78.3,25.5,81,29z"></path><path d="M71,18c-1-0.8-2.2-1.4-3.3-2c1.6,0.9,3.1,1.9,4.6,3.1C71.9,18.7,71.5,18.3,71,18z"></path><path d="M81.4,77.4c-2.3,2.3-4.8,4.2-7.2,6.4C77,81.8,79.4,79.7,81.4,77.4z"></path><path d="M39.2,90.3c-1.9-0.7-3.9-1.3-5.7-2C35.4,89.2,37.3,89.8,39.2,90.3z"></path><path d="M7.5,32.4C4.4,39.1,3,46.5,4,54C3.2,46.3,4.5,39,7.5,32.4z"></path><path d="M56,91c-5,0-9,1-14,0c-0.9-0.2-1.8-0.4-2.8-0.7c0.6,0.2,1.2,0.4,1.8,0.7c6,1,12,1,18,0c5-1,10-3,14-6  c0.4-0.4,0.8-0.8,1.3-1.2c-0.1,0.1-0.2,0.1-0.3,0.2C68,88,63,90,56,91z"></path><path d="M33.5,88.3c-2.2-0.9-4.4-2-6.5-3.3C29,86.5,31.2,87.5,33.5,88.3z"></path><path d="M73.4,78.4c-2.4,1.6-4.8,3.2-7.8,4.8C68.3,81.9,71,80.3,73.4,78.4z"></path><path d="M43,6c9-1,18,1,26,5c1.5,0.8,3,1.7,4.4,2.7c-0.8-0.6-1.6-1.1-2.4-1.7c-5-3-11-5-17-6C34.4,3.1,15.3,15,7.5,32.4  C13.9,18.6,27.5,8,43,6z"></path><path d="M82,49.2c-0.2,2.5-0.9,5.1-0.9,7.6C81.6,54.3,81.9,51.7,82,49.2z"></path><path d="M85,73c0.2-0.4,0.4-0.7,0.6-1.1c-1.2,2-2.6,3.8-4.2,5.5C82.8,76.1,84,74.7,85,73z"></path><path d="M82,21.7c-2.5-3-5.4-5.8-8.6-8C76.6,16.1,79.4,18.7,82,21.7z"></path><path d="M14,55c-1-5,0-9,1-14c2-6,5-12,10-16c4-3,9-6,14-8c19.7-5.9,41.4,9.6,42.9,30.1c-0.1-2.4-0.4-4.8-0.9-7.1c-2-8-7-14-14-19  c-4-3-9-4-14-5c-6-1-12,0-17,2c-6,3-11,6-15,11s-6,10-7,16c-2,11,1.5,21,7.9,28.5c-0.6-0.8-1.3-1.6-1.9-2.5C18,66,15,61,14,55z"></path><path d="M89,65c0.9-2.2,1.5-4.4,2-6.6c-1.1,4.6-3,9.1-5.4,13.5C86.9,69.7,88.1,67.5,89,65z"></path><path d="M32,80c11,6,23,6,34,1c8-4,13-11,17-19c2-5,3-11,2-17c-0.1-0.2-0.1-0.3-0.2-0.5C87.2,61,76.7,78,60,83  c-14.2,3.8-28.4-0.5-37.5-12c0.5,0.7,1,1.3,1.5,2C26,76,29,78,32,80z"></path><path d="M76.6,18.7c0.4,0.4,0.9,0.8,1.3,1.2c-0.3-0.3-0.6-0.7-0.9-1C76.9,18.9,76.7,18.8,76.6,18.7z"></path><path d="M24,80c1.5,1.2,3,2.3,4.5,3.3C17.4,75.7,10.6,63.6,10.3,51c0,3.6,0.6,7.3,1.7,11C14,69,18,75,24,80z"></path><path d="M37.6,87.9c-3.4-1.2-6.3-2.8-9.1-4.6c1.4,1,2.9,1.9,4.5,2.7C34.5,86.8,36.1,87.4,37.6,87.9z"></path><path d="M59,89c28-7,41-40,24-63c-0.1-0.1-0.2-0.2-0.3-0.3c4.1,5.8,6.7,12.7,7.3,20.3c1,17-8,33-23,40c-3,1-7,2-10,3  c-6.5,0.8-12.9,1-19.4-1.1c1.1,0.4,2.2,0.8,3.4,1.1C47,90,53,90,59,89z"></path><path d="M39.4,8.4C44.6,7.3,49.7,7.2,54.7,8C49.5,7.2,44.4,7.3,39.4,8.4z"></path><path d="M37,9C37,9,36.9,9,37,9c0,0,0.1,0,0.2-0.1C37.2,9,37.1,9,37,9z"></path><path d="M74.7,23.9c2.4,3.2,4.8,6.5,6.6,9.7C80.6,32,79.9,30.5,79,29C77.6,27.1,76.2,25.4,74.7,23.9z"></path><path d="M36.9,9c-6.1,1.7-11.8,4.8-16.9,9c-3.2,2.5-5.5,5.9-7.6,9.3c0.5-0.7,1.1-1.5,1.6-2.3C20,17,27.9,12,36.9,9z"></path><path d="M83,64c-2.6,4.6-5.3,8.8-8.8,12.2C77.9,73,81,68.9,83,64z"></path><path d="M10.3,51c0-9.7,3.8-18.9,10.1-25.9c-1.2,1.2-2.3,2.5-3.4,3.8C12.2,35.9,10.1,43.6,10.3,51z"></path><path d="M61,15c5.1,2.2,9.6,4.9,13.7,8.9c-0.2-0.3-0.4-0.6-0.7-0.9C70,19,66,17,61,15z"></path><path d="M42,13c-8.6,1.6-16.1,6-21.6,12.2c8.3-8.5,19-13,30-12.4C47.7,12.5,44.9,12.6,42,13z"></path><path d="M81.3,33.6c1.4,3.4,2.3,7,3.6,10.9c-0.5-3.2-1.4-6.4-2.8-9.5C81.8,34.5,81.5,34.1,81.3,33.6z"></path><path d="M6.4,42.5C6.2,43,6.1,43.5,6,44C4.2,58.2,8.8,72.4,18.9,82.4C8.8,72.2,4,57.1,6.4,42.5z"></path><path d="M59,9c6.8,2,11.8,5.8,17.6,9.7C71,13.6,64.1,10,56.5,8.4C57.4,8.6,58.2,8.8,59,9z"></path><path d="M82.7,25.7c-1.4-2.1-3.1-4-4.8-5.8C79.5,21.8,81.1,24,82.7,25.7z"></path><path d="M61,15c-3.5-1.3-7.1-2.1-10.7-2.3C54,13,57.5,13.8,61,15z"></path><path d="M18.9,82.4c3.9,3.9,8.6,7.1,14,9.3c-3.3-1.4-6.5-3.4-9.9-5.7C21.5,84.9,20.2,83.7,18.9,82.4z"></path><path d="M32.9,91.7c2.5,1.1,5.1,1.9,8.1,2.3C38.1,93.5,35.5,92.7,32.9,91.7z"></path><path d="M6.4,42.5C7.2,39,8.1,35.6,9,33C7.8,36.1,6.9,39.3,6.4,42.5z"></path><path d="M9,33c1.1-1.8,2.2-3.8,3.4-5.7C11,29.2,9.7,30.8,9,33z"></path><path d="M15.5,72c-6.7-11.3-7.5-24.9-3-36.4c-0.2,0.5-0.4,0.9-0.6,1.4C7.2,49.2,9.2,61.9,15.5,72z"></path><path d="M12.6,35.6C16.7,26.3,23.5,18.8,33,15c3.8-1.1,7.4-2.2,10.9-2.8c-3,0.3-6,0.9-8.9,1.8C24,17.8,16.4,25.9,12.6,35.6z"></path><path d="M43.9,12.2c5.7-0.5,11.2,0.1,16.5,1.8c-2.4-0.9-4.9-1.6-7.5-2C49.8,11.5,46.9,11.7,43.9,12.2z"></path><path d="M28.1,84.7C23,81.4,18.7,77,15.5,72c1,1.7,2.2,3.4,3.5,5C21.7,80.1,24.7,82.6,28.1,84.7z"></path><path d="M49.6,90.6c-2.5,0-5.1-0.3-7.6-0.6c-5-1.1-9.7-2.8-13.9-5.3C32,87.1,36.3,89,41,90C43.9,90.4,46.8,90.6,49.6,90.6z"></path><path d="M72,20c-3.6-2.7-7.5-4.6-11.5-6C71.4,18.2,80.1,26.9,84,37.2c0-0.1,0-0.1,0-0.2C82,30,77,25,72,20z"></path><path d="M83,74c3.3-3.9,4.8-8.3,6.1-12.8C87.4,66.9,84.3,72.4,80,77c-5,5-11,9-18,12C70,86,77,81,83,74z"></path><path d="M22.5,71c-3.3-4.6-5.5-9.8-6.4-15.1c0.6,4.4,2,8.8,4.9,13.1C21.5,69.7,22,70.3,22.5,71z"></path><path d="M70,73c-3,2-7,5-11,6c-4.7,1.9-10.3,2-15.2,1.1c1.3,0.3,2.7,0.5,4.2,0.9c16,1,30-11,33-27c2-13-4-26-16-33  c-1.1-0.6-2.3-1.1-3.4-1.5c3.2,1.3,5.8,3.8,8.4,5.5C85,37,85,60,70,73z"></path><path d="M83,64c4.4-8.8,4.3-18.3,1-26.8c1,4.9,2.9,9.9,2,14.8C85,56,84,60,83,64z"></path><path d="M27,61c-0.1-0.3-0.2-0.7-0.3-1c1.1,2.8,2.9,5.5,5.3,8c12,12,32,8,40-6c5-10,4-20-2-29c-4-5-9-9-16-10  c-7.7-1.5-15,0.2-20.8,4.1c2.1-1.3,4.4-2.3,6.8-3.1c13-4,27,2,33,15c2,7,2,13,0,20c-6,15-26,21-39,10c-4-4-7-8-8-14c-1-5-1-10,2-14  c2-3,3-6,6-8c5-4,11-6,17-5c4,1,7,3,10,4c4,2,6,7,8,11c0.4,1.2,0.5,2.5,0.4,4c0-1-0.1-2-0.4-3c-1-4-3-7-6-10c-6-5-13-6-20-5  c-5,1-9,4-12,8s-4,8-5,12c0,6,2,11,5,16c9,12,26,12,36,2c4-4,6-9,7-14c1-4,0-8-1-12s-4-7-6-10c-7.2-7.2-16.9-8.9-25.5-6.4  c6.5-1.5,13-0.4,19.5,2.4c5,3,8,8,11,13c1,3,1,5,2,8c0,4-1,8-2,11c-7,16-28,19-40,6c-8-9-7-22,1-30c6-6,16-8,24-4  c0.4,0.2,0.8,0.5,1.2,0.8C49.4,26.5,38.5,30.5,32,37c-2,3-3,6-4,9c-4,15,9,28,24,27c16-2,26-19,19-34c-1-3-3-5-5-7  c-1.6-2.1-3.7-3.4-6.1-4.4C70.2,32.9,74.7,45.3,72,56c-1,2-2,5-4,7c-4,5-8,7-14,9c-3,0-6,1-9,0c-4-1-7-2-10-5  c-1.6-1.6-2.8-3.1-3.8-4.7c1.5,2.2,3.4,3.9,5.8,5.7c4,3,9,4,14,4c5-1,9-2,13-5c3-3,5-7,7-10c3-8,1-17-5-24c-6-6-15-8-23-7  c-10,2-17,10-19,19c-0.2,1.4-0.3,2.7-0.4,4c0.5-5.9,3.7-11.5,7.4-16c7-7,18-9,27-5c5,3,9,7,12,12c6,13-3,28-17,31c-6,1-12-1-17-5  c-1.9-1.6-3.4-3.5-4.5-5.5c3.1,5.4,8.7,9.2,15.5,10.5c10,1,19-5,23-14c2-7,1-14-3-21c-4-5-8-7-14-9c-7-1-13,0-19,4c-5,3-7,8-9,13  c-1,7-1,14,3,20c3,4,6,7,10,9c0.4,0.1,0.8,0.2,1.1,0.4C37.5,72.8,36,72,35,71C32,68,28,65,27,61z M47,30c3,0,7,0,10,2c5,3,9,6,10,12  c1,4,1,9-1,13c-0.4,0.4-0.7,0.8-1,1.2c3.9-6.7,3.2-15.1-2-21.2c-3-3-6-5-10-6c-2.9,0-6.4-0.5-9.6,0C44.6,30.6,45.8,30.3,47,30z   M63.1,60.8C62.3,62,61.4,63.1,60,64c-2.5,1.7-5.2,2.6-7.9,3c4-1,7.9-2,10.9-6C63,60.9,63.1,60.9,63.1,60.8z M51,35  c-2.1,0-3.6-0.5-5.4-0.4C47.3,34.4,49.1,34.5,51,35z M32.9,56.6c-0.3-0.9-0.6-1.8-0.9-2.6c-1.4-7.9,2.8-15.7,9.7-18.5  C33.6,39.1,30.2,48.7,32.9,56.6z M36.4,62.5c-1.7-1.5-2.7-3.6-3.4-5.7C33.6,58.9,34.8,60.8,36.4,62.5z M38,35  c-0.3,0.1-0.6,0.2-0.8,0.4c1.3-1,2.7-1.8,4.2-2.5C40.3,33.6,39.1,34.4,38,35z M29,57c0.2,1.1,0.5,2,0.9,2.9C29,58.1,28.4,56.1,28,54  c-1-3,0-7,1-10c2-3,3-7,6-9c1.1-0.8,2.2-1.5,3.2-2C29.7,38.2,27.1,47.6,29,57z M43,69c1,0.4,2,0.7,3,0.9C45,69.7,44,69.4,43,69z   M31.7,55.8c0.8,2.2,1.9,4.3,3.3,6.2c3.7,4.6,9.9,7.5,16.4,7.2C42.8,69.9,34.3,64.3,31.7,55.8z M54.2,68.7c1.4-0.4,2.8-1,4.1-1.7  C57,67.8,55.6,68.3,54.2,68.7z M61,65c-4,3-10,4-15,3c-1.1-0.4-2.3-0.9-3.4-1.5c7.7,2.9,17.5,1,22.4-6.5c1-2,2-5,3-7  c2-7.9-1.9-14.8-7.7-19.8c3.5,2.7,6.2,5.9,7.7,9.8C70,51,68,59,61,65z M64.4,62.4c1.9-2.8,3.7-5.6,4.6-8.4  C68.4,57.7,66.6,60.3,64.4,62.4z M70,44c1.7,5.2,0.8,10.6-1.8,15.1c2.6-5.5,2.8-11.8,0.7-17.8C69.3,42.2,69.6,43.1,70,44z M26,43  c2-4,4-8,8-11c5-3,10-5,15-5c4,1,8,1,12,4c2.2,1.3,3.8,3,5.1,4.9C57.9,24.9,40.2,24.9,31,35c-4,5-6,10-6,16c0,0.5,0,0.9,0,1.4  C24.7,49.3,25,46.1,26,43z"></path><path d="M53.4,75.9c2.3-0.5,4.5-1.3,6.6-1.9c6-3,11-8,14-14c6-15-2-31-16-37c-13-5-28,1-35,13c-1,3-2,6-3,9  c-2.6,12,3,23.3,12.2,30.1c-0.4-0.3-0.8-0.7-1.2-1.1c-2.4-2.4-4.7-5.1-6.6-8c0.5,0.7,1,1.4,1.6,2c3,3,6,6,9,8c16,9,36,2,43-15  c2-5,3-10,2-16c-3-18-19-30-37-27c-6,1-12,3-17,8c-0.7,1-1.5,2-2.2,3c1.5-1.7,3.3-3.3,5.2-5c10-7,22-8,33-3c10,5,17,14,18,26  c1,15-9,28-23,32c-6,1-12,1-17-1c-7-3-14-8-17-16c-1.9-5.7-2.9-10.5-2.1-16.1c-0.6,3.5-0.6,7.3,0.1,11.1c0.7,2.9,1.5,5.9,3,8.4  c-3.3-5.3-5.3-11.5-4-18.4c1-3,1-6,3-9c3-5,6-9,10-12c13-8,29-5,38,8c2,3,3,6,4,9c1,10,0,19-8,26c-3,2-6,4-9,5c-5,1-9,2-14,1  c1,0.3,2,0.7,3,1c0.4,0.1,0.7,0.1,1.1,0.2c-1,0-2.1-0.1-3.1-0.2c-6-1-11-4-15-9c-3-4-5-8-6-12c-0.5-1.9-0.6-3.8-0.5-5.7  c-0.4,5.2,0.3,10,3.5,14.7c10,16,32,17,44,3c0.9-1.4,1.6-2.9,2.3-4.3c-0.4,0.8-0.8,1.6-1.3,2.3C67.7,71.5,60.7,74.9,53.4,75.9z"></path><path d="M20,69c-2-3-3-6-4-9c-1-5-1-9-1-14c3-21,25-34,45-27c0.4,0.1,0.9,0.3,1.3,0.4c-2.8-1-5.5-1.7-8.3-2.4c-16-2-32,8-37,23  c-2,7-2,14,0,21c2,4,3,8,6,12c7.1,8.4,17.3,12.4,27.4,12.4C37.7,85.2,26.7,79.9,20,69z"></path><path d="M90.4,43.1c0.7,5.1,0.5,10.3-0.6,15.3c0.4-1.5,0.8-3,1.2-4.5C91.6,50.4,91.1,46.8,90.4,43.1z"></path><path d="M90,26c-3-5-7-10-12-14c-0.5-0.4-1-0.7-1.5-1.1c14.8,11,22.2,30,18.4,47.9C95.4,57,95.7,55,96,53C97,43,94,35,90,26z"></path><path d="M16.1,55.9C15.5,51.1,16,46.2,17,41c0.3-1.2,0.8-2.4,1.3-3.5c-0.1,0.2-0.2,0.3-0.3,0.5C15.5,43.9,15,50,16.1,55.9z"></path><path d="M44,75c-1.6-0.5-3.2-1.1-4.9-1.6C40.8,74,42.5,74.5,44,75z"></path><path d="M76.5,10.9C73.3,8.6,69.8,6.5,66,5C69.5,7.6,73,8.7,76.5,10.9z"></path><path d="M21,45c-0.1,0.3-0.1,0.6-0.1,0.9c1.4-7.8,6-14.6,12.3-18.8C26.9,31.1,22.5,37.5,21,45z"></path><path d="M77.9,18.7C83.6,24,87.4,30.8,89.4,38c-0.1-0.7-0.3-1.3-0.4-2C86.9,29.2,82.9,23.4,77.9,18.7z"></path><path d="M66.2,10.9C63.8,9.8,61.4,8.8,59,8c-6-1-11-2-17-1c-0.7,0.2-1.3,0.4-2,0.6c1-0.2,2-0.4,3-0.6C51,6.2,59.1,7.7,66.2,10.9z"></path><path d="M15,22c2.5-2.5,5.3-4.9,8.3-7.1c-0.1,0-0.2,0.1-0.3,0.1c-4,2-6,5-9,8c-6.5,7.8-9.6,17.4-9.6,27.2C4.5,48.1,4.7,46,5,44  C7,36,10,29,15,22z"></path><path d="M70,91c-7.7,4.3-16.1,4.9-24.6,4.4c5.8,0.6,11.8,0.2,17.6-1.4c10-3,19-10,25-19C83,82,77,87,70,91z"></path><path d="M6.9,65.7C6.9,65.8,7,65.9,7,66c3,8.7,8.5,15.7,15.3,20.7C15,80.6,9.9,73.8,6.9,65.7z"></path><path d="M22,84c1,1,2,1.7,3.2,2.3c-2.3-1.8-4.3-3.6-6.1-5.4C20,82,21,83,22,84z"></path><path d="M65.1,91c-4.7,1.5-9.4,2-14.1,2c-6,1-12,0-18-3c-2.7-1.4-5.4-2.3-7.8-3.7c0.3,0.2,0.6,0.4,0.8,0.7  C38.5,94.8,52.8,95.7,65.1,91z"></path><path d="M83.3,77.7C78.4,83.9,72.1,88.4,65.1,91c2.3-0.7,4.6-1.7,6.9-3C76.7,84.9,80.1,81.8,83.3,77.7z"></path><path d="M23.8,29c-2.3,2.6-4.2,5.4-5.5,8.5C19.7,34.7,21.7,31.8,23.8,29z"></path><path d="M82,26c-0.7-0.7-1.3-1.3-2-2c3.2,4,5.6,8.4,7.1,13.1C86,33.2,84.2,29.5,82,26z"></path><path d="M8,62c1,4,3,8,5,12c0.8,1,1.5,2,2.3,2.9c-3.1-5-5.6-10.5-7.5-16.2C7.9,61.1,7.9,61.5,8,62z"></path><path d="M7,43c2-4.9,3-9.8,5.8-14.7C10.8,31.5,9.2,35.1,8,39c-2,6-2,13-1,19c0.3,0.9,0.5,1.8,0.8,2.6C6.9,54.2,6.1,48.6,7,43z"></path><path d="M16,78c1,1,2,2,3,3c-1.2-1.3-2.5-2.6-3.7-4.1C15.5,77.2,15.8,77.6,16,78z"></path><path d="M75.9,36.3c-1.2-2.5-2.8-4.8-4.6-7C73.2,31.5,74.7,33.8,75.9,36.3z"></path><path d="M54.7,25.6c1.8,0.7,3.5,1.2,5.2,1.9C58.6,27,57.4,26.4,56,26C55.6,25.9,55.1,25.7,54.7,25.6z"></path><path d="M31.2,70.6c-1.3-1.3-2.4-2.7-3.5-3.9C28.7,68.1,29.9,69.4,31.2,70.6z"></path><path d="M43,25c-18,4-27,26-16,41c0.2,0.2,0.4,0.5,0.7,0.7C27,65.8,26.5,64.9,26,64c-1-3-2-5-3-8c-1-5,0-10,1-14  c4.8-11.6,18.1-19.4,30.7-16.4c-0.6-0.2-1.1-0.4-1.7-0.6C50,24,46,25,43,25z"></path><path d="M80.1,65.4c-1.3,1.9-2.6,3.9-3.9,5.8C77.7,69.4,79,67.5,80.1,65.4z"></path><path d="M87,62c-2.5,5.9-5.8,11.2-9.8,15.7c0.3-0.2,0.5-0.4,0.8-0.7c10.5-10.5,13.7-26.1,9.1-39.9C89.7,45.2,89.7,53.8,87,62z"></path><path d="M26,15c4-2,7-4,11-5c13-3,25-1,36,7c2.3,2.3,4.7,4.7,7,7C62,1,28,4,13,28c-0.1,0.1-0.1,0.2-0.2,0.3  C16.1,23.1,20.5,18.7,26,15z"></path><path d="M48,78c4.1,0.7,7.8-0.5,11.3-2c-7.6,2.6-16.2,1.6-23.3-2c-1.7-0.8-3.3-2-4.8-3.4c0.8,0.9,1.8,1.7,2.8,2.4C38,76,43,77,48,78  z"></path><path d="M75,80c0.8-0.8,1.5-1.5,2.2-2.3C71.5,82.3,65.7,86.1,58,88C64.1,86.9,69.9,84.3,75,80z"></path><path d="M58,88C58,88,58,88,58,88c-0.5,0.1-1,0.2-1.5,0.3C57,88.2,57.5,88.1,58,88z"></path><path d="M67,25c-0.2-0.2-0.5-0.4-0.7-0.5c1.2,1,2.4,2,3.4,3.1C68.9,26.6,68,25.8,67,25z"></path><path d="M18,42c2.3-8.5,7.7-15.1,14.3-19.1c-0.1,0-0.2,0.1-0.3,0.1c-4,2-6,5-9,8c-5.6,8-8,18-5.6,27.3C16.4,52.9,16.8,47.3,18,42z"></path><path d="M54,19c1.5,0.7,3.4,0.9,5.2,1.4c-8.9-3.5-18.8-2.4-26.9,2.5C39.2,19.9,46.1,18,54,19z"></path><path d="M25,65c4,5,8,10,14,12c4,1,8,3,13,2c4-1,8-1,11-3c3.9-2.3,7.8-5.9,10.7-9.7c-1.8,1.9-2.9,3.8-5.7,5.7c-8,6-18,8-27,5  c-3-1-6-3-9-5c-12.2-9.3-13.1-26.4-5.2-37.5c-1.5,2-2.8,4.1-3.8,6.5C20,49,21,58,25,65z"></path><path d="M20,65c-1.2-2.2-2.1-4.4-2.6-6.7C18.1,62,19.5,65.7,22,69c4,5,8,10,14,12c1.1,0.3,2.2,0.6,3.3,0.9C31.2,79.2,24,73.5,20,65z  "></path><path d="M75.9,36.3c4,8.1,4.5,17.6,0.1,26.6C80.8,54.5,80.1,44.7,75.9,36.3z"></path><path d="M26.8,34.5c3.8-4.8,9-8.2,14.7-9.9c-0.5,0.1-1,0.2-1.5,0.4C34.4,26.7,29.9,30.1,26.8,34.5z"></path><path d="M76.1,62.9C76,63,76,63.1,75.9,63.2c0-0.1,0.1-0.1,0.1-0.2C76,63,76,62.9,76.1,62.9z"></path><path d="M75.9,63.2c-0.6,1.1-1.4,2.1-2.2,3.1c0.1-0.1,0.2-0.2,0.3-0.3C74.7,65.1,75.3,64.1,75.9,63.2z"></path><path d="M61,21c-0.5-0.3-1.2-0.5-1.8-0.6c2.1,0.8,4.1,1.9,6,3.3C63.9,22.7,62.5,21.8,61,21z"></path><path d="M26.1,81c-5.3-4.2-9.1-9.8-11.7-15.6C16.9,71.8,21,77.1,26.1,81z"></path><path d="M13,62c0.4,1.1,0.9,2.3,1.4,3.4c-0.5-1.4-1-2.9-1.4-4.4c-1.8-7.1-2-14.3,0.1-21.4C10.8,46.7,10.5,54.5,13,62z"></path><path d="M13.1,39.6c0.4-1.3,0.9-2.5,1.5-3.7c-0.2,0.4-0.4,0.8-0.6,1.2C13.7,37.9,13.4,38.7,13.1,39.6z"></path><path d="M29,83c0.1,0.1,0.3,0.1,0.4,0.2c-0.8-0.5-1.6-1-2.3-1.5C27.7,82.1,28.3,82.6,29,83z"></path><path d="M39.3,81.9c5.3,1.8,11.1,2.2,16.7,1.3C50.4,83.8,44.9,83.2,39.3,81.9z"></path><path d="M29.4,83.2c7.8,4.7,17.4,6.7,27.2,5.1C47.5,89.6,38,87.7,29.4,83.2z"></path><path d="M26,21c-4.9,4.1-8.8,9.2-11.4,14.8c2-3.6,4.7-7.2,7.4-10.8c17.1-18.1,48.7-12.6,58.6,9.5c-0.7-1.8-1.5-3.7-2.6-5.5  C66,12,42,8,26,21z"></path><path d="M58.8,82.5c6-1.5,11.6-4.7,16.2-9.5c0.4-0.6,0.8-1.2,1.2-1.8C71.8,76.5,65.9,80.5,58.8,82.5z"></path><path d="M57,83c0.6-0.1,1.2-0.3,1.8-0.5c-0.9,0.2-1.8,0.4-2.8,0.6C56.3,83.1,56.7,83,57,83z"></path><path d="M80.6,34.5c0.7,1.8,1.3,3.5,1.8,5.3c-0.1-0.6-0.3-1.2-0.5-1.8C81.6,36.8,81.1,35.6,80.6,34.5z"></path><path d="M81,64c2-6,5-13,3-20c-0.6-1.4-1-2.8-1.5-4.2c0.5,2.4,0.7,4.8,1.5,7.2c0.4,6.6-1,12.9-3.9,18.4C80.4,64.9,80.7,64.5,81,64z"></path></svg></g></g></svg>