<svg xmlns="http://www.w3.org/2000/svg" xmlns:xlink="http://www.w3.org/1999/xlink" width="100" height="100" viewBox="0 0 100 100"><g><g transform="translate(50 50) scale(0.69 0.69) rotate(0) translate(-50 -50)" style="fill:#5f27cd"><svg fill="#5f27cd" xmlns="http://www.w3.org/2000/svg" xmlns:xlink="http://www.w3.org/1999/xlink" xml:space="preserve" version="1.1" style="shape-rendering:geometricPrecision;text-rendering:geometricPrecision;image-rendering:optimizeQuality;" viewBox="0 0 60000 60000" x="0px" y="0px" fill-rule="evenodd" clip-rule="evenodd"><defs><style type="text/css">
   
    .fil0 {fill:#5f27cd;fill-rule:nonzero}
   
  </style></defs><g><path class="fil0" d="M18598 8714c0,470 88,893 248,1251 161,362 395,663 685,885 28,21 46,35 54,41 566,407 1257,475 1912,309 675,-171 1307,-586 1728,-1135 26,-34 44,-57 54,-71 426,-593 632,-1308 604,-1975 -27,-623 -260,-1199 -711,-1579 -440,-370 -987,-537 -1547,-537 -446,0 -899,105 -1314,298 -417,194 -795,474 -1088,823 -383,455 -625,1031 -625,1690zm711 807c-29,-77 10,-164 87,-193 77,-29 164,10 193,87 55,144 125,275 209,391 84,116 183,218 294,303 16,12 28,21 37,28 386,278 856,325 1300,213 451,-114 873,-391 1155,-758 15,-20 27,-35 36,-48 284,-395 422,-873 403,-1319 -18,-423 -178,-816 -488,-1077 -63,-53 -71,-147 -18,-210 53,-63 147,-71 210,-18 378,318 573,790 595,1294 22,509 -135,1054 -459,1505 -16,22 -29,41 -40,55 -322,420 -805,737 -1320,867 -523,132 -1081,74 -1547,-261 -19,-13 -33,-24 -44,-32 -133,-102 -252,-225 -354,-365 -101,-138 -184,-293 -248,-461zm3763 1796l2778 2692c227,-66 409,-163 549,-291l-2914 -2749c-129,125 -267,241 -413,348zm2547 2746l-2713 -2629c-147,98 -301,186 -459,263l2366 2414c308,10 576,-6 807,-48zm-1994 -3236l2908 2743c100,-135 173,-299 219,-493l-2801 -2652c-8,12 -16,23 -25,35 -29,40 -51,70 -66,90 -73,96 -152,188 -235,277zm438 -570l2732 2586c25,-195 29,-413 14,-655l-2434 -2534c-86,207 -190,409 -312,602zm7264 7202c-108,-86 -126,-243 -40,-351 86,-108 243,-126 351,-40 351,278 563,603 661,936 100,338 81,680 -29,990 -109,306 -308,581 -570,787 -284,223 -643,364 -1044,378 -138,4 -253,-104 -257,-241 -4,-138 104,-253 241,-257 289,-10 548,-112 753,-273 187,-147 329,-342 406,-560 76,-215 89,-451 21,-683 -70,-238 -228,-476 -494,-686zm-9911 -2135l-9550 396c-792,8114 -250,16784 292,25455 265,4239 530,8479 640,12688l15977 -1148c226,-16 453,-37 681,-63 1497,-298 3099,-1121 4610,-2192 2553,-1810 4822,-4309 5928,-6207l1 0c130,-225 413,-313 650,-198 671,329 1444,660 2264,904 800,238 1637,390 2452,368 1623,-45 1759,-545 1970,-1326 54,-199 112,-412 191,-649 3,-15 7,-29 12,-43 664,-2609 933,-6756 991,-11193 91,-6973 -343,-14663 -586,-18261l-18217 855c-202,433 -463,842 -780,1208l2230 2412c149,161 139,413 -22,563 -161,149 -413,139 -563,-22l-2214 -2395c-749,622 -1711,1028 -2856,1064 -228,7 -446,3 -654,-12 -1065,-77 -1988,-432 -2661,-1072 -328,-312 -594,-689 -785,-1132zm8660 -1629l18278 -858 15 -1c275,-18 513,190 531,465 234,3352 716,11462 620,18827 -59,4505 -336,8731 -1022,11426 -736,4346 -5209,5940 -8636,7161 -416,148 -817,291 -1104,398 -1532,573 -3178,1161 -4844,1634 -1443,409 -2908,735 -4343,896 -506,96 -1004,139 -1489,122l-15734 1130 0 -1c-8,1 -17,1 -25,1 -275,5 -502,-213 -508,-488 -99,-4320 -376,-8747 -653,-13174 -554,-8862 -1108,-17724 -245,-26045l0 0c25,-243 225,-437 476,-447l9741 -404c-33,-207 -53,-423 -60,-649 -6,-206 -2,-415 13,-626 14,-202 28,-385 40,-530 12,-147 27,-300 45,-466 -708,71 -1429,-81 -2052,-529 -35,-25 -59,-43 -73,-53 -394,-302 -712,-710 -929,-1198 -206,-463 -320,-994 -320,-1573 0,-857 316,-1609 815,-2202 372,-442 845,-794 1363,-1035 520,-242 1088,-373 1648,-373 737,0 1464,227 2060,728 633,533 959,1319 995,2157 9,220 -2,444 -32,669 56,-43 123,-71 198,-80 74,-9 175,-19 306,-32 136,-13 243,-23 323,-29 2221,-170 3611,715 4282,1995 300,572 450,1220 464,1886 9,430 -41,869 -144,1299zm-5722 1086l-2406 -2455c-8,84 -16,175 -24,271 -16,191 -29,358 -40,521 -14,196 -18,378 -13,548 30,974 352,1708 880,2211 533,507 1285,790 2167,853 192,14 384,18 575,12 1818,-56 3085,-1246 3630,-2663 208,-540 311,-1112 300,-1668 -11,-546 -132,-1073 -373,-1532 -530,-1012 -1666,-1708 -3516,-1566 -136,10 -239,19 -308,26l-44 4 2284 2377c72,65 121,157 130,262 87,1001 -91,1755 -593,2261 -495,500 -1272,719 -2388,657l0 0c-96,-5 -190,-45 -263,-119zm9719 36882c1500,-444 2967,-970 4338,-1482 416,-156 762,-279 1120,-406 2203,-785 4871,-1736 6519,-3494 -200,21 -419,36 -662,42 -936,26 -1876,-143 -2764,-407 -708,-211 -1388,-485 -2005,-771 -1234,1944 -3477,4357 -5973,6127 -189,134 -380,265 -572,391z"></path></g></svg></g></g></svg>