<svg xmlns="http://www.w3.org/2000/svg" xmlns:xlink="http://www.w3.org/1999/xlink" width="100" height="100" viewBox="0 0 100 100"><g><g transform="translate(50 50) scale(0.69 0.69) rotate(0) translate(-50 -50)" style="fill:#487eb0"><svg fill="#487eb0" xmlns="http://www.w3.org/2000/svg" xmlns:xlink="http://www.w3.org/1999/xlink" version="1.1" x="0px" y="0px" viewBox="0 0 47 47" enable-background="new 0 0 47 47" xml:space="preserve"><path d="M17.563,1.796H5.688c-0.414,0-0.75,0.336-0.75,0.75v11.529c0,0.414,0.336,0.75,0.75,0.75h11.875  c0.414,0,0.75-0.336,0.75-0.75V2.546C18.313,2.132,17.977,1.796,17.563,1.796z M16.813,13.325H6.438V3.296h10.375V13.325z"></path><path d="M21.943,9.061h19.369c0.414,0,0.75-0.336,0.75-0.75s-0.336-0.75-0.75-0.75H21.943c-0.414,0-0.75,0.336-0.75,0.75  S21.529,9.061,21.943,9.061z"></path><path d="M10.931,10.457c0.021,0.017,0.046,0.023,0.068,0.037c0.017,0.011,0.027,0.027,0.044,0.037  c0.013,0.007,0.028,0.004,0.042,0.01c0.099,0.046,0.203,0.077,0.309,0.077c0.124,0,0.242-0.037,0.353-0.096  c0.036-0.019,0.061-0.05,0.093-0.074c0.049-0.038,0.105-0.065,0.145-0.116c0.018-0.023,0.023-0.051,0.038-0.075  c0.009-0.015,0.027-0.021,0.035-0.037l2.075-3.92c0.193-0.366,0.054-0.82-0.312-1.014c-0.364-0.192-0.82-0.054-1.014,0.312  l-1.655,3.126l-0.908-0.713c-0.327-0.256-0.797-0.2-1.053,0.126C8.935,8.461,8.991,8.933,9.317,9.188L10.931,10.457z"></path><path d="M17.563,16.985H5.688c-0.414,0-0.75,0.336-0.75,0.75v11.529c0,0.414,0.336,0.75,0.75,0.75h11.875  c0.414,0,0.75-0.336,0.75-0.75V17.735C18.313,17.321,17.977,16.985,17.563,16.985z M16.813,28.515H6.438V18.485h10.375V28.515z"></path><path d="M41.313,22.75H21.943c-0.414,0-0.75,0.336-0.75,0.75s0.336,0.75,0.75,0.75h19.369c0.414,0,0.75-0.336,0.75-0.75  S41.727,22.75,41.313,22.75z"></path><path d="M10.931,25.646c0.021,0.017,0.046,0.022,0.068,0.037c0.017,0.01,0.027,0.026,0.044,0.036  c0.013,0.007,0.028,0.004,0.042,0.011c0.1,0.045,0.203,0.076,0.309,0.076c0.123,0,0.242-0.037,0.352-0.096  c0.036-0.02,0.061-0.05,0.093-0.074c0.049-0.037,0.105-0.065,0.146-0.116c0.019-0.023,0.023-0.052,0.039-0.077  c0.009-0.015,0.026-0.021,0.034-0.036l2.075-3.919c0.193-0.366,0.054-0.82-0.312-1.014c-0.364-0.192-0.82-0.054-1.014,0.312  l-1.655,3.126l-0.908-0.714c-0.325-0.256-0.797-0.199-1.053,0.126s-0.199,0.797,0.126,1.053L10.931,25.646z"></path><path d="M17.563,32.175H5.688c-0.414,0-0.75,0.336-0.75,0.75v11.529c0,0.414,0.336,0.75,0.75,0.75h11.875  c0.414,0,0.75-0.336,0.75-0.75V32.925C18.313,32.511,17.977,32.175,17.563,32.175z M16.813,43.704H6.438V33.675h10.375V43.704z"></path><path d="M41.313,37.939H21.943c-0.414,0-0.75,0.336-0.75,0.75s0.336,0.75,0.75,0.75h19.369c0.414,0,0.75-0.336,0.75-0.75  S41.727,37.939,41.313,37.939z"></path></svg></g></g></svg>